0
SECTION
2
HEADER
9
$ACADVER
1
AC1015
9
$INSUNITS
1
METERS
0
ENDSEC
0
SECTION
2
TABLES
0
TABLE
2
LAYER
70
1
0
LAYER
2
0
62
7
6
CONTINUOUS
0
ENDTAB
0
ENDSEC
0
SECTION
2
ENTITIES

; ===========================================
; 主体建筑外墙 - 40x30米的大型仓库
; ===========================================
0
LINE
8
WALL-EXTERIOR
10
0.0
20
0.0
30
0.0
11
40.0
21
0.0
31
0.0
0
LINE
8
WALL-EXTERIOR
10
40.0
20
0.0
30
0.0
11
40.0
21
30.0
31
0.0
0
LINE
8
WALL-EXTERIOR
10
40.0
20
30.0
30
0.0
11
0.0
21
30.0
31
0.0
0
LINE
8
WALL-EXTERIOR
10
0.0
20
30.0
30
0.0
11
0.0
21
0.0
31
0.0

; ===========================================
; 内部分隔墙 - 存储区域划分
; ===========================================
; 左侧存储区隔断
0
LINE
8
WALL-INTERIOR
10
5.0
20
5.0
30
0.0
11
5.0
21
25.0
31
0.0

0
LINE
8
WALL-INTERIOR
10
5.0
20
25.0
30
0.0
11
15.0
21
25.0
31
0.0

0
LINE
8
WALL-INTERIOR
10
15.0
20
5.0
30
0.0
11
15.0
21
25.0
31
0.0

; 中央通道分隔
0
LINE
8
WALL-INTERIOR
10
15.0
20
5.0
30
0.0
11
15.0
21
15.0
31
0.0

0
LINE
8
WALL-INTERIOR
10
15.0
20
15.0
30
0.0
11
25.0
21
15.0
31
0.0

0
LINE
8
WALL-INTERIOR
10
25.0
20
15.0
30
0.0
11
25.0
21
25.0
31
0.0

; 右侧存储区隔断
0
LINE
8
WALL-INTERIOR
10
25.0
20
5.0
30
0.0
11
25.0
21
15.0
31
0.0

0
LINE
8
WALL-INTERIOR
10
25.0
20
15.0
30
0.0
11
35.0
21
15.0
31
0.0

0
LINE
8
WALL-INTERIOR
10
35.0
20
5.0
30
0.0
11
35.0
21
25.0
31
0.0

; 横向分隔墙（上部存储区）
0
LINE
8
WALL-INTERIOR
10
5.0
20
20.0
30
0.0
11
15.0
21
20.0
31
0.0

0
LINE
8
WALL-INTERIOR
10
15.0
20
20.0
30
0.0
11
35.0
21
20.0
31
0.0

0
LINE
8
WALL-INTERIOR
10
35.0
20
20.0
30
0.0
11
35.0
21
25.0
31
0.0

; 办公室隔断（右下角）
0
LINE
8
WALL-INTERIOR
10
30.0
20
5.0
30
0.0
11
30.0
21
15.0
31
0.0

0
LINE
8
WALL-INTERIOR
10
30.0
20
15.0
30
0.0
11
38.0
21
15.0
31
0.0

0
LINE
8
WALL-INTERIOR
10
38.0
20
5.0
30
0.0
11
38.0
21
25.0
31
0.0

0
LINE
8
WALL-INTERIOR
10
30.0
20
25.0
30
0.0
11
35.0
21
25.0
31
0.0

0
LINE
8
WALL-INTERIOR
10
35.0
20
5.0
30
0.0
11
35.0
21
15.0
31
0.0

; ===========================================
; 柱子 - 6x6米网格布局
; ===========================================
0
CIRCLE
8
COLUMN
10
6.0
20
6.0
30
0.0
40
0.4

0
CIRCLE
8
COLUMN
10
6.0
20
12.0
30
0.0
40
0.4

0
CIRCLE
8
COLUMN
10
6.0
20
18.0
30
0.0
40
0.4

0
CIRCLE
8
COLUMN
10
6.0
20
24.0
30
0.0
40
0.4

0
CIRCLE
8
COLUMN
10
12.0
20
6.0
30
0.0
40
0.4

0
CIRCLE
8
COLUMN
10
12.0
20
12.0
30
0.0
40
0.4

0
CIRCLE
8
COLUMN
10
12.0
20
18.0
30
0.0
40
0.4

0
CIRCLE
8
COLUMN
10
12.0
20
24.0
30
0.0
40
0.4

0
CIRCLE
8
COLUMN
10
18.0
20
6.0
30
0.0
40
0.4

0
CIRCLE
8
COLUMN
10
18.0
20
12.0
30
0.0
40
0.4

0
CIRCLE
8
COLUMN
10
18.0
20
18.0
30
0.0
40
0.4

0
CIRCLE
8
COLUMN
10
18.0
20
24.0
30
0.0
40
0.4

0
CIRCLE
8
COLUMN
10
24.0
20
6.0
30
0.0
40
0.4

0
CIRCLE
8
COLUMN
10
24.0
20
12.0
30
0.0
40
0.4

0
CIRCLE
8
COLUMN
10
24.0
20
18.0
30
0.0
40
0.4

0
CIRCLE
8
COLUMN
10
24.0
20
24.0
30
0.0
40
0.4

0
CIRCLE
8
COLUMN
10
30.0
20
6.0
30
0.0
40
0.4

0
CIRCLE
8
COLUMN
10
30.0
20
12.0
30
0.0
40
0.4

0
CIRCLE
8
COLUMN
10
30.0
20
18.0
30
0.0
40
0.4

0
CIRCLE
8
COLUMN
10
30.0
20
24.0
30
0.0
40
0.4

0
CIRCLE
8
COLUMN
10
36.0
20
6.0
30
0.0
40
0.4

0
CIRCLE
8
COLUMN
10
36.0
20
12.0
30
0.0
40
0.4

0
CIRCLE
8
COLUMN
10
36.0
20
18.0
30
0.0
40
0.4

0
CIRCLE
8
COLUMN
10
36.0
20
24.0
30
0.0
40
0.4

; 中间大型柱子
0
CIRCLE
8
COLUMN-LARGE
10
20.0
20
12.0
30
0.0
40
0.6

0
CIRCLE
8
COLUMN-LARGE
10
20.0
20
22.0
30
0.0
40
0.6

; ===========================================
; 通道标记（辅助线）
; ===========================================
0
LINE
8
AISLE-CENTER
10
20.0
20
10.0
30
0.0
11
20.0
21
30.0
31
0.0

0
LINE
8
AISLE-CENTER
10
10.0
20
10.0
30
0.0
11
10.0
21
30.0
31
0.0

0
LINE
8
AISLE-CENTER
10
30.0
20
10.0
30
0.0
11
30.0
21
30.0
31
0.0

; 横向通道
0
LINE
8
AISLE-HORIZONTAL
10
10.0
20
15.0
30
0.0
11
30.0
21
15.0
31
0.0

0
LINE
8
AISLE-HORIZONTAL
10
10.0
20
22.5
30
0.0
11
30.0
21
22.5
31
0.0

0
ENDSEC
0
EOF
